<svg xmlns="http://www.w3.org/2000/svg" viewBox="0 0 200 280">
  <defs>
    <linearGradient id="dgBg" x1="0" y1="0" x2="1" y2="1">
      <stop offset="0" stop-color="#3a0f18"/>
      <stop offset="1" stop-color="#0c0b0e"/>
    </linearGradient>
  </defs>
  <rect x="4" y="4" width="192" height="272" rx="14" fill="url(#dgBg)" stroke="#7d1f2b" stroke-width="2.5"/>
  <rect x="14" y="14" width="172" height="252" rx="8" fill="none" stroke="#c9a24b" stroke-width="1.5"/>
  <g stroke="#c9a24b" stroke-width="1.5"><path d="M18 26 L18 18 L26 18"/><path d="M182 26 L182 18 L174 18"/><path d="M18 254 L18 262 L26 262"/><path d="M182 254 L182 262 L174 262"/></g>
  <line x1="30" y1="34" x2="170" y2="34" stroke="#7d1f2b" stroke-width="2"/>
  <g transform="translate(58,48) scale(1.75)" fill="none" stroke="#e6c877" stroke-width="2.1" stroke-linecap="round" stroke-linejoin="round">
    <path d="M24 4 L29 27 L19 27 Z"/>
    <path d="M13 27 L35 27"/>
    <path d="M19.5 27 L19.5 39 Q24 41.5 28.5 39 L28.5 27"/>
    <circle cx="24" cy="43" r="2.2" fill="#e6c877" stroke="none"/>
  </g>
  <text x="100" y="222" text-anchor="middle" font-family="Georgia, serif" font-size="18" letter-spacing="3" fill="#e6c877">DAGGER</text>
  <text x="100" y="243" text-anchor="middle" font-family="Georgia, serif" font-size="8" letter-spacing="0.4" fill="#a9895a">+1 VOTE WEIGHT AT BANISHMENT</text>
</svg>
