<svg xmlns="http://www.w3.org/2000/svg" viewBox="0 0 200 280">
  <defs>
    <linearGradient id="g3Bg" x1="0" y1="0" x2="1" y2="1">
      <stop offset="0" stop-color="#2a2110"/>
      <stop offset="1" stop-color="#0c0b0e"/>
    </linearGradient>
  </defs>
  <rect x="4" y="4" width="192" height="272" rx="14" fill="url(#g3Bg)" stroke="#e6c877" stroke-width="3"/>
  <rect x="13" y="13" width="174" height="254" rx="9" fill="none" stroke="#c9a24b" stroke-width="1.5"/>
  <g stroke="#e6c877" stroke-width="1.5"><path d="M18 26 L18 18 L26 18"/><path d="M182 26 L182 18 L174 18"/><path d="M18 254 L18 262 L26 262"/><path d="M182 254 L182 262 L174 262"/></g>
  <g transform="translate(58,50) scale(1.75)" fill="none" stroke="#e6c877" stroke-width="2.1" stroke-linecap="round" stroke-linejoin="round">
    <circle cx="24" cy="24" r="17"/><circle cx="24" cy="24" r="11.5"/>
    <path d="M24 16.5 L25.8 21 L30.5 21 L26.8 23.9 L28.2 28.5 L24 25.7 L19.8 28.5 L21.2 23.9 L17.5 21 L22.2 21 Z"/>
  </g>
  <text x="100" y="196" text-anchor="middle" font-family="Georgia, serif" font-size="30" fill="#e6c877">3</text>
  <text x="100" y="222" text-anchor="middle" font-family="Georgia, serif" font-size="16" letter-spacing="2" fill="#e6c877">THREE GOLD</text>
  <text x="100" y="243" text-anchor="middle" font-family="Georgia, serif" font-size="8" letter-spacing="0.4" fill="#a9895a">ADDS TO THE PRIZE POT</text>
</svg>
