<svg xmlns="http://www.w3.org/2000/svg" viewBox="0 0 200 280">
  <defs>
    <linearGradient id="muBg" x1="0" y1="0" x2="1" y2="1">
      <stop offset="0" stop-color="#2c0d14"/>
      <stop offset="1" stop-color="#08070a"/>
    </linearGradient>
  </defs>
  <rect x="4" y="4" width="192" height="272" rx="14" fill="url(#muBg)" stroke="#c9a24b" stroke-width="2"/>
  <rect x="12" y="12" width="176" height="256" rx="10" fill="none" stroke="#7d1f2b" stroke-width="2"/>
  <rect x="18" y="18" width="164" height="244" rx="7" fill="none" stroke="#c9a24b" stroke-width="1" stroke-opacity="0.6"/>
  <g transform="translate(58,42) scale(1.75)" fill="none" stroke="#e6c877" stroke-width="2" stroke-linecap="round" stroke-linejoin="round">
    <path d="M12 21 C12 12.5 17.5 7 24 7 C30.5 7 36 12.5 36 21 C36 25.5 34 27.5 33 29.5 L33 34 L15 34 L15 29.5 C14 27.5 12 25.5 12 21 Z"/>
    <circle cx="19.5" cy="20" r="3"/><circle cx="28.5" cy="20" r="3"/>
    <path d="M24 22 L22.5 27 L25.5 27 Z"/>
    <path d="M17 34 L17 39 M22 34 L22 40 M27 34 L27 40 M32 34 L32 39"/>
  </g>
  <text x="100" y="222" text-anchor="middle" font-family="Georgia, serif" font-size="18" letter-spacing="3" fill="#e6c877">MURDER</text>
  <text x="100" y="243" text-anchor="middle" font-family="Georgia, serif" font-size="8" letter-spacing="0.4" fill="#a9895a">FATE CARD — THE DECEIVERS STRIKE</text>
</svg>
